# This file uses centimeters as units for non-parametric coordinates.

mtllib berg.mtl
g default
v -26.434340 -16.623055 23.830303
v -37.378124 -15.706649 21.177153
v -37.446224 -24.587851 27.434900
v -27.285225 -24.915300 25.160700
v -15.625575 -24.933550 25.771349
v -19.787401 -11.529600 20.788403
v -9.406006 3.072464 14.571452
v -16.569977 -9.460900 19.383150
v -3.698085 -10.317801 19.468750
v -3.976440 -7.620699 15.763301
v 7.605000 -24.711250 25.118198
v 6.221895 -10.397950 17.333998
v 17.334826 -24.713850 26.951797
v 17.654100 -10.827099 19.288000
v 26.634901 -24.586149 29.197651
v 25.989300 -13.214950 21.717001
v 29.519924 -13.921200 20.643049
v 29.929649 -24.585600 25.769499
v 37.322250 -24.084900 25.101950
v 37.857601 -18.360800 22.967701
v 6.368985 2.957821 9.676849
v 17.054251 -9.004399 15.542400
v 23.746876 -0.000031 14.673950
v 29.491800 -7.980101 16.598549
v 37.432800 -10.826400 17.529499
v 30.226500 6.615950 3.009095
v 37.182976 -3.594709 13.185950
v 22.626148 25.571503 -6.786200
v 14.931676 16.445950 -12.096750
v 11.178600 22.397850 -5.131600
v -0.004151 32.483253 0.820075
v -18.947805 -6.308018 12.615770
v -7.639425 38.750702 -2.920780
v -14.923725 25.740952 1.142505
v -29.127300 10.069702 5.769100
v -37.233673 2.643270 7.270450
v -27.048706 -5.764893 13.341171
v -37.033596 -7.876001 13.805712
v -35.813736 0.772919 9.451245
v -28.686228 6.654938 7.540560
v -15.678308 18.478897 3.082169
v -8.456513 32.182064 3.724092
v -0.855648 23.727280 4.149456
v 11.382730 18.924187 -0.514025
v 15.339288 13.778693 -2.681715
v 22.690620 21.468897 -0.379876
v 30.405899 4.328686 7.056489
v 37.235271 -5.155237 14.164483
v 37.299198 -7.125484 15.225845
v 30.421099 0.919914 11.318143
v 22.897949 15.661758 6.733749
v 15.887299 6.346903 3.863921
v 9.932239 13.779716 3.412065
v -2.113752 12.939274 7.541869
v -8.577790 21.706322 5.730281
v -16.761551 10.074512 6.233130
v -28.143602 2.588512 9.792080
v -36.341106 -1.553835 12.162598
v 37.416622 -10.465203 17.270670
v 29.578657 -7.092758 16.032557
v 23.665705 1.566179 13.822674
v 16.824181 -7.051873 14.985809
v 6.726155 4.046877 9.021154
v -3.826891 -5.582611 14.806557
v -9.291955 4.739773 13.165720
v -18.677706 -4.735600 11.757421
v -27.158651 -4.906797 13.005927
v -36.961586 -7.170187 13.818328
v 37.353539 -8.749382 16.190798
v 29.992638 -2.994009 13.506632
v 23.281200 8.807140 10.057302
v 16.099709 0.857508 10.728440
v 8.854107 9.874619 7.592052
v -2.720100 4.309149 11.806274
v -8.788564 12.898071 7.839378
v -17.557547 2.669895 8.277134
v -27.766933 -1.566635 9.924708
v -36.612919 -4.041055 13.557972
v 37.500000 -15.245857 20.683174
v 29.348961 -11.828611 18.428656
v 25.045523 -7.920719 18.535299
v 17.465626 -10.360072 17.330141
v 6.205217 -5.943233 12.700306
v -3.803283 -9.158362 18.010677
v -13.132117 -5.939650 15.053106
v -19.416870 -9.425440 17.359203
v -26.700541 -12.045095 19.572683
v -37.294796 -12.112756 18.499313
v 37.564167 -20.614988 24.155260
v 29.871010 -18.093142 23.432753
v 26.272968 -17.969496 24.928909
v 17.285082 -15.912623 23.861357
v 6.779969 -16.036346 21.404776
v -8.550748 -15.446861 24.491066
v -17.925028 -10.334630 19.972692
v -15.653834 -7.658762 15.773192
v -13.306144 -0.999428 13.558681
v -13.373497 0.854616 12.719666
v -12.273300 8.404449 7.590018
v -11.734473 16.593748 5.195947
v -11.790470 26.593191 3.852942
v -10.715111 33.274094 -1.202785
v -37.414906 -20.300413 24.176891
v -26.878725 -20.966049 24.158199
v -17.669161 -18.358297 23.273685
v -13.062716 -13.612113 21.152802
v -9.991329 -9.206388 20.099619
v -8.367067 -7.246033 17.041288
v -6.623247 -2.334021 15.244823
v -6.246497 -0.231199 14.560259
v -5.711601 8.510395 9.799800
v -5.251791 17.385708 7.098432
v -4.370056 28.302477 4.963751
v -3.713709 35.652390 -0.875863
vt 0.102648 0.295139
vt 1.000000 0.295139
vt 0.641545 0.434315
vt 0.000000 0.000000
vt 0.000000 0.000000
vt 1.000000 0.000000
vt 1.000000 1.000000
vt 0.000000 1.000000
vt 0.000000 0.000000
vt 1.000000 0.000000
vt 1.000000 1.000000
vt 0.000000 1.000000
vt 0.000000 0.000000
vt 1.000000 0.000000
vt 1.000000 1.000000
vt 0.000000 1.000000
vt 0.000000 0.000000
vt 1.000000 0.000000
vt 1.000000 1.000000
vt 0.000000 1.000000
vt 0.000000 0.000000
vt 1.000000 0.000000
vt 1.000000 1.000000
vt 0.000000 1.000000
vt 0.000000 0.000000
vt 1.000000 0.000000
vt 1.000000 1.000000
vt 0.000000 1.000000
vt 0.000000 0.000000
vt 1.000000 0.000000
vt 1.000000 1.000000
vt 0.000000 1.000000
vt 0.000000 0.000000
vt 1.000000 0.000000
vt 1.000000 1.000000
vt 0.000000 1.000000
vt 0.000000 0.000000
vt 1.000000 0.000000
vt 1.000000 1.000000
vt 0.000000 1.000000
vt 0.000000 0.000000
vt 1.000000 0.000000
vt 1.000000 1.000000
vt 0.000000 1.000000
vt 0.000000 0.000000
vt 1.000000 0.000000
vt 1.000000 1.000000
vt 0.000000 1.000000
vt 0.000000 0.000000
vt 1.000000 0.000000
vt 1.000000 1.000000
vt 0.000000 1.000000
vt 0.000000 0.000000
vt 1.000000 0.000000
vt 1.000000 1.000000
vt 0.000000 1.000000
vt 0.000000 0.000000
vt 1.000000 0.000000
vt 1.000000 1.000000
vt 0.000000 1.000000
vt 0.000000 0.000000
vt 1.000000 0.000000
vt 1.000000 1.000000
vt 0.000000 1.000000
vt 0.000000 0.000000
vt 1.000000 0.000000
vt 1.000000 1.000000
vt 0.000000 1.000000
vt 0.000000 0.000000
vt 1.000000 0.000000
vt 1.000000 1.000000
vt 0.000000 1.000000
vt 0.000000 0.000000
vt 1.000000 0.000000
vt 1.000000 1.000000
vt 0.000000 1.000000
vt 0.000000 0.000000
vt 1.000000 0.000000
vt 1.000000 1.000000
vt 0.000000 1.000000
vt 0.000000 0.000000
vt 1.000000 0.000000
vt 1.000000 1.000000
vt 0.000000 1.000000
vt 0.000000 0.000000
vt 1.000000 0.000000
vt 1.000000 1.000000
vt 0.000000 1.000000
vt 0.000000 0.000000
vt 1.000000 0.000000
vt 1.000000 1.000000
vt 0.000000 1.000000
vt 0.462321 0.000000
vt 0.462321 1.000000
vt 0.000000 0.000000
vt 1.000000 0.000000
vt 1.000000 1.000000
vt 0.000000 1.000000
vt 0.000000 0.000000
vt 1.000000 0.000000
vt 1.000000 1.000000
vt 0.000000 1.000000
vt 0.882285 1.000000
vt 0.882285 0.000000
vt 0.218932 0.000000
vt 0.218932 0.000000
vt 0.218932 1.000000
vt 0.781068 1.000000
vt 0.218932 1.000000
vt 0.218932 0.000000
vt 0.781068 0.000000
vt 0.781068 1.000000
vt 0.218932 1.000000
vt 0.218932 0.000000
vt 0.781068 0.000000
vt 0.781068 1.000000
vt 0.218932 1.000000
vt 1.000000 0.218932
vt 0.781068 0.000000
vt 0.000000 0.218932
vt 0.000000 0.482831
vt 1.000000 0.482831
vt 0.517169 0.000000
vt 0.517169 1.000000
vt 0.482831 1.000000
vt 0.482831 0.000000
vt 0.517169 0.000000
vt 0.517169 1.000000
vt 0.482831 1.000000
vt 0.482831 0.000000
vt 0.517169 0.000000
vt 0.517169 1.000000
vt 0.482831 1.000000
vt 0.482831 0.000000
vt 0.482831 1.000000
vt 0.740392 0.000000
vt 0.482831 0.000000
vt 0.740392 1.000000
vt 0.000000 0.947462
vt 1.000000 0.947462
vt 0.052538 0.000000
vt 0.052538 1.000000
vt 0.947462 1.000000
vt 0.947462 0.000000
vt 0.052538 0.000000
vt 0.052538 1.000000
vt 0.947462 1.000000
vt 0.947462 0.000000
vt 0.052538 0.000000
vt 0.052538 1.000000
vt 0.947462 1.000000
vt 0.947462 0.000000
vt 0.947462 1.000000
vt 0.490569 0.000000
vt 0.947462 0.000000
vt 0.490569 1.000000
vt 0.000000 0.706988
vt 1.000000 0.706988
vt 0.293012 0.000000
vt 0.293012 1.000000
vt 0.706988 1.000000
vt 0.706988 0.000000
vt 0.293012 0.000000
vt 0.293012 1.000000
vt 0.706988 1.000000
vt 0.706988 0.000000
vt 0.293012 0.000000
vt 0.293012 1.000000
vt 0.706988 1.000000
vt 0.706988 0.000000
vt 0.706988 1.000000
vt 0.619868 0.000000
vt 0.706988 0.000000
vt 0.619868 1.000000
vt 0.000000 0.586303
vt 0.413697 0.000000
vt 1.000000 0.586303
vt 0.000000 0.586303
vt 0.413697 1.000000
vt 0.000000 0.586303
vt 1.000000 0.586303
vt 0.000000 0.586303
vt 1.000000 0.586303
vt 0.000000 0.586303
vt 1.000000 0.586303
vt 1.000000 0.586303
vt 0.000000 0.586303
vt 1.000000 0.586303
vt 1.000000 0.413697
vt 0.191261 0.000000
vt 0.000000 0.413697
vt 0.191261 1.000000
vt 0.421305 1.000000
vt 0.578695 0.000000
vt 0.421305 0.000000
vt 0.421305 1.000000
vt 0.578695 1.000000
vt 0.421305 1.000000
vt 0.421305 0.000000
vt 1.000000 0.578695
vt 0.421305 0.000000
vt 0.000000 0.421305
vt 0.000000 0.578695
vt 1.000000 0.421305
vt 0.421305 1.000000
vt 0.421305 0.586303
vt 0.421305 0.000000
vt 1.000000 0.578695
vt 0.947462 0.578695
vt 0.706988 0.578695
vt 0.482831 0.578695
vt 0.218932 0.578695
vt 0.000000 0.578695
vt 0.817811 0.365877
vt 0.050476 0.145131
vt 0.508262 0.000000
vt 0.508262 1.000000
vt 0.491738 1.000000
vt 0.491738 0.421305
vt 0.491738 1.000000
vt 0.491738 0.000000
vt 0.491738 0.586303
vt 0.491738 0.000000
vt 0.000000 0.491738
vt 0.052538 0.491738
vt 0.293012 0.491738
vt 0.517169 0.491738
vt 0.781068 0.491738
vt 1.000000 0.491738
vn -0.088388 0.351759 0.931909
vn -0.088388 0.351759 0.931908
vn -0.088388 0.351759 0.931908
vn -0.088388 0.351759 0.931908
vn 0.112090 0.258412 0.959510
vn 0.112090 0.258412 0.959510
vn 0.112090 0.258412 0.959510
vn 0.112090 0.258412 0.959510
vn -0.059378 0.820724 0.568231
vn -0.059378 0.820724 0.568231
vn -0.059378 0.820724 0.568231
vn -0.059378 0.820724 0.568231
vn 0.068170 0.381440 0.921876
vn 0.068170 0.381440 0.921876
vn 0.068170 0.381440 0.921876
vn 0.068170 0.381440 0.921876
vn 0.096062 0.233025 0.967714
vn 0.096062 0.233026 0.967714
vn 0.096062 0.233026 0.967714
vn 0.096062 0.233025 0.967714
vn -0.196496 0.347168 0.916986
vn -0.196496 0.347168 0.916986
vn -0.196496 0.347168 0.916986
vn -0.196496 0.347168 0.916986
vn -0.117738 0.425202 0.897408
vn -0.117738 0.425202 0.897408
vn -0.117738 0.425202 0.897408
vn -0.117738 0.425202 0.897408
vn 0.539245 0.392690 0.744990
vn 0.539245 0.392690 0.744990
vn 0.539245 0.392690 0.744990
vn 0.539245 0.392690 0.744990
vn 0.038363 0.312154 0.949257
vn 0.038363 0.312154 0.949257
vn 0.038363 0.312154 0.949257
vn 0.038363 0.312154 0.949257
vn 0.135474 0.729915 0.669978
vn 0.135474 0.729915 0.669978
vn 0.135474 0.729915 0.669978
vn 0.135474 0.729915 0.669978
vn -0.002494 0.801238 0.598341
vn -0.002494 0.801238 0.598341
vn -0.002494 0.801238 0.598341
vn -0.002494 0.801238 0.598341
vn -0.173683 0.636353 0.751591
vn -0.173683 0.636353 0.751591
vn -0.173683 0.636353 0.751591
vn -0.173683 0.636353 0.751591
vn 0.441053 0.571853 0.691706
vn 0.441053 0.571853 0.691706
vn 0.441053 0.571853 0.691706
vn 0.441053 0.571853 0.691706
vn 0.105171 0.656211 0.747212
vn 0.105171 0.656211 0.747212
vn 0.105171 0.656211 0.747212
vn 0.105171 0.656211 0.747212
vn 0.370887 0.745562 0.553697
vn 0.370887 0.745562 0.553697
vn 0.370887 0.745562 0.553697
vn 0.370887 0.745562 0.553697
vn 0.830041 0.484255 0.276639
vn 0.830041 0.484255 0.276639
vn 0.830041 0.484255 0.276639
vn 0.830041 0.484255 0.276639
vn -0.775096 0.572204 0.267970
vn -0.775096 0.572204 0.267970
vn -0.775096 0.572204 0.267970
vn -0.775096 0.572204 0.267970
vn 0.868682 0.466612 0.166328
vn 0.868682 0.466612 0.166328
vn 0.868682 0.466612 0.166328
vn 0.868682 0.466612 0.166328
vn 0.582666 0.420918 0.695219
vn 0.582666 0.420918 0.695219
vn 0.582666 0.420918 0.695219
vn 0.582666 0.420918 0.695219
vn -0.260186 0.856185 0.446374
vn -0.260186 0.856186 0.446374
vn -0.260186 0.856185 0.446374
vn -0.260186 0.856185 0.446374
vn 0.249436 0.631845 0.733862
vn 0.249436 0.631845 0.733862
vn 0.249436 0.631845 0.733862
vn 0.249436 0.631845 0.733862
vn -0.658745 0.404677 0.634265
vn -0.658745 0.404677 0.634265
vn -0.658745 0.404677 0.634265
vn -0.658745 0.404677 0.634265
vn -0.106073 0.642042 0.759296
vn -0.106073 0.642042 0.759296
vn -0.106073 0.642042 0.759296
vn -0.106073 0.642042 0.759296
vn -0.267406 0.514909 0.814471
vn -0.267406 0.514909 0.814471
vn -0.267406 0.514909 0.814471
vn -0.267406 0.514909 0.814471
vn -0.016880 0.328715 0.944279
vn -0.016880 0.328715 0.944279
vn -0.016880 0.328715 0.944279
vn -0.016880 0.328715 0.944279
vn -0.169034 0.744981 0.645315
vn -0.169034 0.744981 0.645315
vn -0.169034 0.744981 0.645315
vn -0.169034 0.744981 0.645315
vn 0.018432 0.202436 0.979122
vn 0.018432 0.202436 0.979122
vn 0.018432 0.202436 0.979122
vn 0.018432 0.202436 0.979122
vn 0.116167 0.431640 0.894535
vn 0.116167 0.431640 0.894535
vn 0.116167 0.431640 0.894535
vn 0.116167 0.431640 0.894535
vn -0.529760 0.401448 0.747123
vn -0.529760 0.401448 0.747123
vn -0.529760 0.401448 0.747123
vn -0.529760 0.401448 0.747123
vn 0.418996 0.397950 0.816136
vn 0.418996 0.397949 0.816136
vn 0.418996 0.397949 0.816136
vn 0.418996 0.397950 0.816136
vn 0.073427 0.447629 0.891200
vn 0.073427 0.447629 0.891200
vn 0.073427 0.447629 0.891200
vn 0.073427 0.447629 0.891200
vn -0.111814 0.371952 0.921493
vn -0.111814 0.371952 0.921493
vn -0.111814 0.371952 0.921493
vn -0.111814 0.371952 0.921493
vn -0.297686 0.331820 0.895141
vn -0.297686 0.331820 0.895141
vn -0.297686 0.331820 0.895141
vn -0.297686 0.331820 0.895141
vn 0.375906 0.462850 0.802786
vn 0.375906 0.462850 0.802786
vn 0.375906 0.462850 0.802786
vn 0.375906 0.462850 0.802786
vn 0.100113 0.544487 0.832773
vn 0.100113 0.544487 0.832773
vn 0.100113 0.544487 0.832773
vn 0.100113 0.544487 0.832773
vn 0.316316 0.669627 0.671970
vn 0.316316 0.669627 0.671970
vn 0.316316 0.669627 0.671970
vn 0.316316 0.669627 0.671970
vn 0.758246 0.513755 0.401396
vn 0.758246 0.513755 0.401396
vn 0.758246 0.513755 0.401396
vn 0.758246 0.513755 0.401396
vn -0.732400 0.468228 0.494321
vn -0.732400 0.468228 0.494320
vn -0.732400 0.468228 0.494321
vn -0.732400 0.468228 0.494321
vn 0.669355 0.446439 0.593848
vn 0.669355 0.446439 0.593848
vn 0.669355 0.446439 0.593848
vn 0.669355 0.446439 0.593848
vn 0.368652 0.335533 0.866899
vn 0.368652 0.335533 0.866899
vn 0.368652 0.335533 0.866899
vn 0.368652 0.335533 0.866899
vn -0.127310 0.194243 0.972657
vn -0.127309 0.194243 0.972657
vn -0.127309 0.194243 0.972657
vn -0.127310 0.194243 0.972657
vn -0.367004 0.239945 0.898740
vn -0.367004 0.239945 0.898740
vn -0.367004 0.239945 0.898740
vn -0.367004 0.239945 0.898740
vn -0.013551 0.397970 0.917298
vn -0.013551 0.397970 0.917298
vn -0.013551 0.397970 0.917298
vn -0.013551 0.397970 0.917298
vn -0.177342 0.603217 0.777611
vn -0.177342 0.603217 0.777611
vn -0.177342 0.603217 0.777611
vn -0.177342 0.603217 0.777611
vn 0.093657 0.520615 0.848639
vn 0.093657 0.520615 0.848639
vn 0.093657 0.520615 0.848639
vn 0.093657 0.520615 0.848639
vn 0.365611 0.450825 0.814300
vn 0.365611 0.450825 0.814300
vn 0.365611 0.450825 0.814300
vn 0.365611 0.450825 0.814300
vn -0.377750 0.411558 0.829413
vn -0.377750 0.411558 0.829412
vn -0.377750 0.411558 0.829413
vn -0.377750 0.411558 0.829412
vn -0.036792 0.385423 0.922006
vn -0.036792 0.385423 0.922006
vn -0.036792 0.385423 0.922006
vn -0.036792 0.385423 0.922006
vn 0.281995 0.206007 0.937038
vn 0.281995 0.206007 0.937038
vn 0.281995 0.206007 0.937038
vn 0.281995 0.206007 0.937038
vn 0.277266 0.479798 0.832417
vn 0.277266 0.479798 0.832417
vn 0.277266 0.479798 0.832417
vn 0.277266 0.479798 0.832416
vn -0.531946 0.480420 0.697302
vn -0.531946 0.480420 0.697302
vn -0.531946 0.480420 0.697302
vn -0.531946 0.480420 0.697302
vn 0.009452 0.520793 0.853631
vn 0.009453 0.520793 0.853631
vn 0.009452 0.520793 0.853631
vn 0.009453 0.520793 0.853631
vn 0.093672 0.459870 0.883032
vn 0.093672 0.459870 0.883032
vn 0.093672 0.459870 0.883032
vn 0.093672 0.459870 0.883032
vn 0.072545 0.489825 0.868798
vn 0.072545 0.489825 0.868797
vn 0.072545 0.489825 0.868797
vn 0.072545 0.489825 0.868798
vn 0.325942 0.429676 0.842105
vn 0.325942 0.429676 0.842105
vn 0.325942 0.429676 0.842105
vn 0.325942 0.429676 0.842105
vn -0.654769 0.462073 0.598136
vn -0.654769 0.462073 0.598136
vn -0.654769 0.462073 0.598136
vn -0.654769 0.462073 0.598136
vn 0.588685 0.592384 0.550028
vn 0.588685 0.592384 0.550028
vn 0.588686 0.592384 0.550028
vn 0.588685 0.592384 0.550028
vn 0.146815 0.539005 0.829409
vn 0.146815 0.539005 0.829409
vn 0.146815 0.539005 0.829409
vn 0.146815 0.539005 0.829409
vn -0.136061 0.264851 0.954642
vn -0.136061 0.264851 0.954642
vn -0.136061 0.264851 0.954642
vn -0.136061 0.264851 0.954642
vn -0.179329 0.283465 0.942066
vn -0.179329 0.283465 0.942066
vn -0.179329 0.283465 0.942066
vn -0.179329 0.283465 0.942066
vn 0.138047 0.178432 0.974220
vn 0.138047 0.178432 0.974220
vn 0.138047 0.178432 0.974220
vn 0.138047 0.178432 0.974220
vn 0.246610 0.220956 0.943590
vn 0.246610 0.220956 0.943590
vn 0.246610 0.220956 0.943590
vn 0.246610 0.220956 0.943590
vn 0.031283 0.515784 0.856148
vn 0.031283 0.515784 0.856147
vn 0.031283 0.515784 0.856147
vn 0.031283 0.515784 0.856147
vn 0.364614 0.434163 0.823747
vn 0.364614 0.434163 0.823747
vn 0.364614 0.434163 0.823747
vn 0.364614 0.434163 0.823747
vn -0.367024 0.433534 0.823007
vn -0.367024 0.433534 0.823007
vn -0.367024 0.433534 0.823007
vn -0.367024 0.433534 0.823007
vn -0.117473 0.419411 0.900164
vn -0.117473 0.419411 0.900164
vn -0.117473 0.419411 0.900164
vn -0.117473 0.419411 0.900164
vn 0.190675 0.442599 0.876213
vn 0.190675 0.442599 0.876213
vn 0.190675 0.442599 0.876213
vn 0.190675 0.442599 0.876213
vn -0.148128 0.216085 0.965073
vn -0.148128 0.216085 0.965073
vn -0.148128 0.216085 0.965073
vn -0.148128 0.216085 0.965073
vn -0.407975 0.604486 0.684217
vn -0.407975 0.604486 0.684217
vn -0.407975 0.604486 0.684217
vn -0.407975 0.604486 0.684217
vn 0.021760 0.759282 0.650398
vn 0.021760 0.759282 0.650398
vn 0.021760 0.759282 0.650398
vn 0.021760 0.759282 0.650398
vn -0.096313 0.716704 0.690695
vn -0.096313 0.716704 0.690695
vn -0.096313 0.716704 0.690695
vn -0.096313 0.716704 0.690695
vn 0.066998 0.525528 0.848134
vn 0.066998 0.525528 0.848134
vn 0.066998 0.525528 0.848134
vn 0.066998 0.525528 0.848134
vn 0.340246 0.541207 0.768978
vn 0.340246 0.541207 0.768978
vn 0.340246 0.541207 0.768978
vn 0.340246 0.541207 0.768978
vn 0.000904 0.620463 0.784235
vn 0.000904 0.620463 0.784235
vn 0.000904 0.620463 0.784235
vn 0.000904 0.620463 0.784235
vn -0.146477 0.619233 0.771424
vn -0.146477 0.619233 0.771424
vn -0.146477 0.619233 0.771424
vn -0.146477 0.619233 0.771424
vn 0.178163 0.592436 0.785670
vn 0.178163 0.592436 0.785670
vn 0.178163 0.592436 0.785670
vn 0.178163 0.592437 0.785670
vn -0.064051 0.345065 0.936391
vn -0.064051 0.345065 0.936391
vn -0.064051 0.345065 0.936391
vn -0.064051 0.345065 0.936391
vn -0.457622 0.836487 0.301449
vn -0.457622 0.836487 0.301449
vn -0.457622 0.836487 0.301449
vn -0.457622 0.836487 0.301449
vn -0.284022 0.268440 0.920474
vn -0.284022 0.268440 0.920474
vn -0.284022 0.268440 0.920474
vn -0.284022 0.268440 0.920474
vn -0.571121 0.446619 0.688733
vn -0.571121 0.446619 0.688733
vn -0.571121 0.446619 0.688733
vn -0.571121 0.446619 0.688733
vn -0.596806 0.485940 0.638502
vn -0.596806 0.485940 0.638502
vn -0.596806 0.485940 0.638502
vn -0.596806 0.485940 0.638502
vn -0.457402 0.246529 0.854404
vn -0.457402 0.246529 0.854404
vn -0.457402 0.246529 0.854404
vn -0.457402 0.246529 0.854404
vn -0.312935 0.154292 0.937158
vn -0.312935 0.154292 0.937158
vn -0.312935 0.154292 0.937158
vn -0.312935 0.154292 0.937158
vn -0.738213 0.502685 0.449833
vn -0.738213 0.502685 0.449833
vn -0.738213 0.502685 0.449833
vn -0.738213 0.502685 0.449833
vn 0.119623 0.451113 0.884413
vn 0.119623 0.451113 0.884413
vn 0.119623 0.451113 0.884413
vn 0.119623 0.451113 0.884413
vn -0.026224 0.311794 0.949788
vn -0.026224 0.311794 0.949788
vn -0.026224 0.311794 0.949788
vn -0.026224 0.311794 0.949788
vn -0.248984 0.413620 0.875743
vn -0.248984 0.413620 0.875743
vn -0.248984 0.413620 0.875743
vn -0.248984 0.413620 0.875743
vn -0.051502 0.566751 0.822278
vn -0.051502 0.566751 0.822278
vn -0.051502 0.566751 0.822278
vn -0.051502 0.566751 0.822278
vn 0.196942 0.774446 0.601204
vn 0.196942 0.774446 0.601204
vn 0.196942 0.774446 0.601204
vn 0.196942 0.774446 0.601204
vn 0.284203 0.458668 0.841934
vn 0.284203 0.458668 0.841934
vn 0.284203 0.458668 0.841934
vn 0.284203 0.458668 0.841934
vn 0.455032 0.277538 0.846120
vn 0.455032 0.277538 0.846120
vn 0.455032 0.277538 0.846120
vn 0.455032 0.277538 0.846120
vn 0.248880 0.353617 0.901673
vn 0.248880 0.353617 0.901673
vn 0.248880 0.353617 0.901673
vn 0.248880 0.353617 0.901673
vn 0.137469 0.358975 0.923168
vn 0.137469 0.358975 0.923168
vn 0.137469 0.358975 0.923168
vn 0.137469 0.358975 0.923168
vn 0.326592 0.202877 0.923135
vn 0.326592 0.202877 0.923135
vn 0.326592 0.202877 0.923135
vn 0.326592 0.202877 0.923135
vn 0.365306 0.434484 0.823271
vn 0.365306 0.434484 0.823271
vn 0.365306 0.434484 0.823271
vn 0.365306 0.434484 0.823271
s off
g polySurface1
usemtl initialShadingGroup
f 1/1/1 2/2/2 103/214/3 104/215/4
f 1/5/5 104/216/6 105/217/7 6/8/8
f 107/220/9 108/222/10 85/186/11 8/11/12
f 105/218/13 106/219/14 95/204/15 6/15/16
f 5/17/17 11/18/18 93/200/19 94/203/20
f 92/198/21 93/201/22 11/22/23 13/23/24
f 91/196/25 92/199/26 13/26/27 15/27/28
f 18/29/29 90/194/30 91/197/31 15/32/32
f 89/193/33 90/195/34 18/34/35 19/35/36
f 83/182/37 84/185/38 9/39/39 12/40/40
f 82/180/41 83/183/42 12/43/43 14/44/44
f 81/178/45 82/181/46 14/47/47 16/48/48
f 17/49/49 80/176/50 81/179/51 16/52/52
f 79/175/53 80/177/54 17/55/55 20/56/56
f 27/57/57 26/58/58 47/118/59 48/120/60
f 46/116/61 47/119/62 26/62/63 28/63/64
f 29/65/65 45/114/66 46/117/67 28/68/68
f 44/112/69 45/115/70 29/70/71 30/71/72
f 31/73/73 43/110/74 44/113/75 30/76/76
f 95/205/77 96/206/78 86/188/79 6/79/80
f 42/108/81 113/228/82 114/229/83 33/83/84
f 34/85/85 41/106/86 101/212/87 102/213/88
f 1/89/89 87/190/90 88/192/91 2/92/92
f 39/103/93 40/104/94 35/90/95 36/91/96
f 35/95/97 40/105/98 41/107/99 34/98/100
f 1/99/101 6/100/102 86/189/103 87/191/104
f 38/94/105 37/93/106 67/154/107 68/156/108
f 66/153/109 67/155/110 37/96/111 32/97/112
f 97/208/113 98/209/114 66/152/115 32/86/116
f 109/224/117 110/225/118 65/150/119 7/84/120
f 63/147/121 64/148/122 10/74/123 21/75/124
f 22/69/125 62/145/126 63/146/127 21/72/128
f 61/143/129 62/144/130 22/66/131 23/67/132
f 24/61/133 60/141/134 61/142/135 23/64/136
f 59/139/137 60/140/138 24/59/139 25/60/140
f 48/120/141 47/118/142 50/122/143 49/121/144
f 51/124/145 50/123/146 47/119/147 46/116/148
f 46/117/149 45/114/150 52/126/151 51/125/152
f 53/128/153 52/127/154 45/115/155 44/112/156
f 44/113/157 43/110/158 54/130/159 53/129/160
f 55/132/161 112/227/162 113/228/163 42/108/164
f 100/211/165 101/212/166 41/106/167 56/134/168
f 41/107/169 40/105/170 57/137/171 56/135/172
f 58/138/173 57/136/174 40/104/175 39/103/176
f 69/157/177 70/158/178 60/140/179 59/139/180
f 61/142/181 60/141/182 70/159/183 71/160/184
f 71/161/185 72/162/186 62/144/187 61/143/188
f 63/146/189 62/145/190 72/163/191 73/164/192
f 73/165/193 74/166/194 64/148/195 63/147/196
f 65/150/197 110/225/198 111/226/199 75/168/200
f 98/209/201 99/210/202 76/170/203 66/152/204
f 76/171/205 77/173/206 67/155/207 66/153/208
f 68/156/209 67/154/210 77/172/211 78/174/212
f 49/121/213 50/122/214 70/158/215 69/157/216
f 71/160/217 70/159/218 50/123/219 51/124/220
f 51/125/221 52/126/222 72/162/223 71/161/224
f 73/164/225 72/163/226 52/127/227 53/128/228
f 53/129/229 54/130/230 74/166/231 73/165/232
f 75/168/233 111/226/234 112/227/235 55/132/236
f 99/210/237 100/211/238 56/134/239 76/170/240
f 56/135/241 57/137/242 77/173/243 76/171/244
f 78/174/245 77/172/246 57/136/247 58/138/248
f 25/53/249 24/54/250 80/177/251 79/175/252
f 81/179/253 80/176/254 24/50/255 23/51/256
f 23/45/257 22/46/258 82/181/259 81/178/260
f 22/41/261 21/42/262 83/183/263 82/180/264
f 21/37/265 10/38/266 84/185/267 83/182/268
f 108/222/269 109/223/270 7/10/271 85/186/272
f 96/206/273 97/207/274 32/78/275 86/188/276
f 87/191/277 86/189/278 32/101/279 37/102/280
f 88/192/281 87/190/282 37/93/283 38/94/284
f 17/33/285 90/195/286 89/193/287 20/36/288
f 91/197/289 90/194/290 17/30/291 16/31/292
f 14/25/293 92/199/294 91/196/295 16/28/296
f 12/21/297 93/201/298 92/198/299 14/24/300
f 94/203/301 93/200/302 12/19/303 9/20/304
f 106/219/305 107/221/306 8/14/307 95/204/308
f 85/187/309 96/206/310 95/205/311 8/80/312
f 7/77/313 97/207/314 96/206/315 85/187/316
f 65/151/317 98/209/318 97/208/319 7/87/320
f 75/169/321 99/210/322 98/209/323 65/151/324
f 55/133/325 100/211/326 99/210/327 75/169/328
f 42/109/329 101/212/330 100/211/331 55/133/332
f 102/213/333 101/212/334 42/109/335 33/88/336
f 104/215/337 103/214/338 3/3/339 4/4/340
f 105/217/341 104/216/342 4/6/343 5/7/344
f 94/202/345 106/219/346 105/218/347 5/16/348
f 9/13/349 107/221/350 106/219/351 94/202/352
f 84/184/353 108/222/354 107/220/355 9/12/356
f 10/9/357 109/223/358 108/222/359 84/184/360
f 10/81/361 64/149/362 110/225/363 109/224/364
f 111/226/365 110/225/366 64/149/367 74/167/368
f 112/227/369 111/226/370 74/167/371 54/131/372
f 113/228/373 112/227/374 54/131/375 43/111/376
f 114/229/377 113/228/378 43/111/379 31/82/380
